<?xml version="1.0" encoding="UTF-8"?>
<svg id="Layer_1" data-name="Layer 1" xmlns="http://www.w3.org/2000/svg" viewBox="0 0 200 200">
  <defs>
    <style>
      .cls-1 {
        fill: #ebe8e6;
      }
    </style>
  </defs>
  <circle class="cls-1" cx="100" cy="100" r="100"/>
  <path d="M41.3,110.8h30.3v6.7h-37.9v-39.4h7.6s0,32.7,0,32.7ZM90.3,114.1l5.9,5.9,5.9-5.9-5.9-5.9-5.9,5.9ZM166.4,105.8c0,8.2-6.5,11.8-14.5,11.8h-27.8v-39.4h27c5.1,0,13,1.6,13,10.2s-1.7,6.4-4.6,7.6c2.8,1,6.8,3.4,6.8,9.8h.1ZM131.7,93.3h18.8c2.3,0,5.9-.7,5.9-4.3s-2.2-4.3-5.8-4.3h-18.9v8.6h0ZM158.6,105.1c0-4.4-3.1-5.4-6.8-5.4h-20.1v11.3h20.1c3.5,0,6.8-1.6,6.8-6v.1Z"/>
</svg>